<svg width="32" height="32" viewBox="0 0 32 32" fill="none" xmlns="http://www.w3.org/2000/svg">
  <!-- Background with gradient -->
  <defs>
    <linearGradient id="bgGradient" x1="0%" y1="0%" x2="100%" y2="100%">
      <stop offset="0%" style="stop-color:#667eea;stop-opacity:1" />
      <stop offset="100%" style="stop-color:#764ba2;stop-opacity:1" />
    </linearGradient>
    <linearGradient id="dressGradient" x1="0%" y1="0%" x2="100%" y2="100%">
      <stop offset="0%" style="stop-color:#f8b4b4;stop-opacity:1" />
      <stop offset="100%" style="stop-color:#e879f9;stop-opacity:1" />
    </linearGradient>
  </defs>
  
  <!-- Background circle -->
  <circle cx="16" cy="16" r="16" fill="url(#bgGradient)"/>
  
  <!-- Mirror frame -->
  <rect x="6" y="4" width="20" height="24" rx="2" fill="white" opacity="0.1"/>
  <rect x="7" y="5" width="18" height="22" rx="1" fill="white" opacity="0.2"/>
  
  <!-- Person figure (left side) -->
  <!-- Head -->
  <circle cx="11" cy="8" r="2" fill="white"/>
  <!-- Body with dress -->
  <path d="M9 12 L9 22 L13 22 L13 12 L11 10 Z" fill="url(#dressGradient)"/>
  <!-- Arms -->
  <rect x="8" y="12" width="1.5" height="6" rx="0.5" fill="white"/>
  <rect x="12.5" y="12" width="1.5" height="6" rx="0.5" fill="white"/>
  <!-- Legs -->
  <rect x="10" y="22" width="1" height="4" rx="0.5" fill="white"/>
  <rect x="11" y="22" width="1" height="4" rx="0.5" fill="white"/>
  
  <!-- Reflection (right side) -->
  <!-- Head reflection -->
  <circle cx="21" cy="8" r="2" fill="white" opacity="0.7"/>
  <!-- Body reflection -->
  <path d="M19 12 L19 22 L23 22 L23 12 L21 10 Z" fill="url(#dressGradient)" opacity="0.7"/>
  <!-- Arms reflection -->
  <rect x="18" y="12" width="1.5" height="6" rx="0.5" fill="white" opacity="0.7"/>
  <rect x="22.5" y="12" width="1.5" height="6" rx="0.5" fill="white" opacity="0.7"/>
  <!-- Legs reflection -->
  <rect x="20" y="22" width="1" height="4" rx="0.5" fill="white" opacity="0.7"/>
  <rect x="21" y="22" width="1" height="4" rx="0.5" fill="white" opacity="0.7"/>
  
  <!-- Mirror divider line -->
  <line x1="16" y1="4" x2="16" y2="28" stroke="white" stroke-width="0.5" opacity="0.3"/>
  
  <!-- Sparkle effects -->
  <circle cx="8" cy="6" r="0.5" fill="white" opacity="0.8"/>
  <circle cx="24" cy="6" r="0.5" fill="white" opacity="0.6"/>
  <circle cx="10" cy="26" r="0.3" fill="white" opacity="0.7"/>
  <circle cx="22" cy="26" r="0.3" fill="white" opacity="0.5"/>
</svg>
